<svg height="380" width="580" version="1.1" xmlns="http://www.w3.org/2000/svg"><defs><clipPath id="highcharts-4"><rect stroke-width="0" height="237" width="515" y="0" x="0" fill="none" ry="0" rx="0"></rect></clipPath></defs><rect stroke="#4572A7" stroke-width="0" height="380" width="580" y="0" x="0" fill="none" ry="5" rx="5"></rect><path stroke-width="1" stroke="#808080" fill="none" d="M 55 282.5 L 570 282.5"></path><text  class="highcharts-title" text-anchor="middle" style="color:#3e576f;font-size:16px;fill:#3e576f;" y="25" x="290"><tspan x="290">Titre du graphique</tspan></text><g  class="highcharts-grid"></g><g  class="highcharts-grid"><path stroke-width="1" stroke="#C0C0C0" fill="none" d="M 55 282.5 L 570 282.5"></path><path stroke-width="1" stroke="#C0C0C0" fill="none" d="M 55 223.5 L 570 223.5"></path><path stroke-width="1" stroke="#C0C0C0" fill="none" d="M 55 164.5 L 570 164.5"></path><path stroke-width="1" stroke="#C0C0C0" fill="none" d="M 55 104.5 L 570 104.5"></path><path stroke-width="1" stroke="#C0C0C0" fill="none" d="M 55 45.5 L 570 45.5"></path></g><g  class="highcharts-series-group"><g transform="translate(55,45)" visibility="visible" clip-path="url(#highcharts-4)" class="highcharts-series"><path transform="translate(1,1)" stroke-opacity="0.05"  stroke-width="5" stroke="rgb(0, 0, 0)" fill="none" d="M 85.83333333333333 177.75 L 257.5 118.5 L 429.16666666666663 59.25"></path><path transform="translate(1,1)" stroke-opacity="0.1"  stroke-width="3" stroke="rgb(0, 0, 0)" fill="none" d="M 85.83333333333333 177.75 L 257.5 118.5 L 429.16666666666663 59.25"></path><path transform="translate(1,1)" stroke-opacity="0.15000000000000002"  stroke-width="1" stroke="rgb(0, 0, 0)" fill="none" d="M 85.83333333333333 177.75 L 257.5 118.5 L 429.16666666666663 59.25"></path><path stroke-width="2" stroke="#4572A7" fill="none" d="M 85.83333333333333 177.75 L 257.5 118.5 L 429.16666666666663 59.25"></path><circle fill="#4572A7" stroke-width="0" stroke="#FFFFFF" r="3" cy="59.25" cx="429.16666666666663"></circle><circle fill="#4572A7" stroke-width="0" stroke="#FFFFFF" r="3" cy="118.5" cx="257.5"></circle><circle fill="#4572A7" stroke-width="0" stroke="#FFFFFF" r="3" cy="177.75" cx="85.83333333333333"></circle></g><g transform="translate(55,45)" visibility="visible" clip-path="url(#highcharts-4)" class="highcharts-series"><path transform="translate(1,1)" stroke-opacity="0.05"  stroke-width="5" stroke="rgb(0, 0, 0)" fill="none" d="M 0 0"></path><path transform="translate(1,1)" stroke-opacity="0.1"  stroke-width="3" stroke="rgb(0, 0, 0)" fill="none" d="M 0 0"></path><path transform="translate(1,1)" stroke-opacity="0.15000000000000002"  stroke-width="1" stroke="rgb(0, 0, 0)" fill="none" d="M 0 0"></path><path stroke-width="2" stroke="#AA4643" fill="none" d="M 0 0"></path></g><g transform="translate(55,45)" visibility="visible" clip-path="url(#highcharts-4)" class="highcharts-series"><path transform="translate(1,1)" stroke-opacity="0.05"  stroke-width="5" stroke="rgb(0, 0, 0)" fill="none" d="M 0 0"></path><path transform="translate(1,1)" stroke-opacity="0.1"  stroke-width="3" stroke="rgb(0, 0, 0)" fill="none" d="M 0 0"></path><path transform="translate(1,1)" stroke-opacity="0.15000000000000002"  stroke-width="1" stroke="rgb(0, 0, 0)" fill="none" d="M 0 0"></path><path stroke-width="2" stroke="#89A54E" fill="none" d="M 0 0"></path></g></g><g transform="translate(159,335)"  class="highcharts-legend"><rect visibility="visible" stroke="#909090" stroke-width="1" height="29" width="260" y="0.5" x="0.5" fill="none" ry="5" rx="5"></rect><text  style="fill:#3e576f;" y="18" x="30"><tspan x="30">Id</tspan></text><path transform="translate(30,14)" stroke="#4572A7"  stroke-width="2" fill="none" d="M -21 0 L -5 0"></path><text  style="fill:#3e576f;" y="18" x="82"><tspan x="82">Emp_No</tspan></text><path transform="translate(82,14)" stroke="#AA4643"  stroke-width="2" fill="none" d="M -21 0 L -5 0"></path><text  style="fill:#3e576f;" y="18" x="170.48333358764648"><tspan x="170.48333358764648">Full_Name</tspan></text><path transform="translate(170.48333358764648,14)" stroke="#89A54E"  stroke-width="2" fill="none" d="M -21 0 L -5 0"></path><circle fill="#4572A7" stroke-width="0" stroke="#FFFFFF"  r="3" cy="14" cx="17"></circle><path stroke-width="0" stroke="#FFFFFF"  fill="#AA4643" d="M 69 11 L 72 14 69 17 66 14 Z"></path><path stroke-width="0" stroke="#FFFFFF"  fill="#89A54E" d="M 155.379 11.879 L 159.621 11.879 159.621 16.121 155.379 16.121 Z"></path></g><g  class="highcharts-axis"><text text-anchor="middle" style="width:148px;color:#666;font-size:11px;line-height:14px;fill:#666;" y="296" x="140.83333333333331"><tspan x="140.83333333333331">2005-10-22</tspan></text><text text-anchor="middle" style="width:148px;color:#666;font-size:11px;line-height:14px;fill:#666;" y="296" x="312.5"><tspan x="312.5">2011-05-14</tspan></text><text text-anchor="middle" style="width:148px;color:#666;font-size:11px;line-height:14px;fill:#666;" y="296" x="484.1666666666667"><tspan x="484.1666666666667">0216-03-09</tspan></text><path stroke-width="1" stroke="#C0D0E0" fill="none" d="M 227.5 282 L 227.5 287"></path><path stroke-width="1" stroke="#C0D0E0" fill="none" d="M 398.5 282 L 398.5 287"></path><path stroke-width="1" stroke="#C0D0E0" fill="none" d="M 570.5 282 L 570.5 287"></path></g><text text-anchor="middle"  style="color:#6d869f;font-weight:bold;fill:#6d869f;" y="317" x="312.5"><tspan x="312.5">Hire_Date</tspan></text><g  class="highcharts-axis"><text text-anchor="end" style="width:233px;color:#666;font-size:11px;line-height:14px;fill:#666;" y="285.6" x="47"><tspan x="47">0</tspan></text><text text-anchor="end" style="width:233px;color:#666;font-size:11px;line-height:14px;fill:#666;" y="226.35" x="47"><tspan x="47">1</tspan></text><text text-anchor="end" style="width:233px;color:#666;font-size:11px;line-height:14px;fill:#666;" y="167.1" x="47"><tspan x="47">2</tspan></text><text text-anchor="end" style="width:233px;color:#666;font-size:11px;line-height:14px;fill:#666;" y="107.85" x="47"><tspan x="47">3</tspan></text><text text-anchor="end" style="width:233px;color:#666;font-size:11px;line-height:14px;fill:#666;" y="48.6" x="47"><tspan x="47">4</tspan></text></g><text text-anchor="middle" transform="rotate(270 30.050000190734863 163)"  style="color:#6d869f;font-weight:bold;fill:#6d869f;" y="163.5" x="30.050000190734863"><tspan x="30.050000190734863">Valeurs en Y</tspan></text><path  stroke-width="1" stroke="#C0D0E0" fill="none" d="M 55 282.5 L 570 282.5"></path><g visibility="hidden"  class="highcharts-tooltip"><rect transform="translate(1,1)" stroke-opacity="0.05" stroke="rgb(0, 0, 0)"  fill-opacity="0.85" stroke-width="5" height="0" width="0" y="2" x="2" fill="none" ry="5" rx="5"></rect><rect transform="translate(1,1)" stroke-opacity="0.1" stroke="rgb(0, 0, 0)"  fill-opacity="0.85" stroke-width="3" height="0" width="0" y="2" x="2" fill="none" ry="5" rx="5"></rect><rect transform="translate(1,1)" stroke-opacity="0.15000000000000002" stroke="rgb(0, 0, 0)"  fill-opacity="0.85" stroke-width="1" height="0" width="0" y="2" x="2" fill="none" ry="5" rx="5"></rect><rect fill-opacity="0.85" stroke-width="2" height="0" width="0" y="2" x="2" fill="rgb(255,255,255)" ry="5" rx="5"></rect><text  style="color:#333333;font-size:12px;padding:0;white-space:nowrap;fill:#333333;" y="14" x="2"><tspan x="2"> </tspan></text></g><g transform="translate(55,45)"  class="highcharts-tracker"><path style=""  visibility="visible" stroke-width="22" stroke="rgb(192,192,192)" stroke-opacity="0.000001"  fill="none" d="M 75.83333333333333 177.75 L 85.83333333333333 177.75 L 257.5 118.5 L 429.16666666666663 59.25 L 439.16666666666663 59.25"></path><path style=""  visibility="visible" stroke-width="22" stroke="rgb(192,192,192)" stroke-opacity="0.000001"  fill="none" d="M 0 0"></path><path style=""  visibility="visible" stroke-width="22" stroke="rgb(192,192,192)" stroke-opacity="0.000001"  fill="none" d="M 0 0"></path></g></svg>